PathFileType	4	(X/Y/Z)	/Users/itak/Documents/Research/Walk-IL/dataset/trc/00027_00004.trc
DataRate	CameraRate	NumFrames	NumMarkers	Units	OrigDataRate	OrigDataStartFrame	OrigNumFrames
100.000000	100.000000	4	53	mm	100.000000	153	613
Frame#	Time	RPSI			LPSI			L3			STRN			T10			C7			CLAV			RBAK			LBAK			LSHO			LUPA			LAEL			LAOL			LWTS			LWPS			LFRA			LIFD			LHPS			LHTS			RSHO			RUPA			RAEL			RAOL			RWTS			RWPS			RFRA			RIFD			RHTS			RHPS			RBHD			LFHD			RFHD			LBHD			LHIP			RHIP			RASI			LASI			LKNE			LTHI			LANK			LTIP			LTOE			LMT1			LMT5			LHEE			RKNE			RTHI			RANK			RTIP			RTOE			RMT1			RMT5			RHEE			
		X1	Y1	Z1	X2	Y2	Z2	X3	Y3	Z3	X4	Y4	Z4	X5	Y5	Z5	X6	Y6	Z6	X7	Y7	Z7	X8	Y8	Z8	X9	Y9	Z9	X10	Y10	Z10	X11	Y11	Z11	X12	Y12	Z12	X13	Y13	Z13	X14	Y14	Z14	X15	Y15	Z15	X16	Y16	Z16	X17	Y17	Z17	X18	Y18	Z18	X19	Y19	Z19	X20	Y20	Z20	X21	Y21	Z21	X22	Y22	Z22	X23	Y23	Z23	X24	Y24	Z24	X25	Y25	Z25	X26	Y26	Z26	X27	Y27	Z27	X28	Y28	Z28	X29	Y29	Z29	X30	Y30	Z30	X31	Y31	Z31	X32	Y32	Z32	X33	Y33	Z33	X34	Y34	Z34	X35	Y35	Z35	X36	Y36	Z36	X37	Y37	Z37	X38	Y38	Z38	X39	Y39	Z39	X40	Y40	Z40	X41	Y41	Z41	X42	Y42	Z42	X43	Y43	Z43	X44	Y44	Z44	X45	Y45	Z45	X46	Y46	Z46	X47	Y47	Z47	X48	Y48	Z48	X49	Y49	Z49	X50	Y50	Z50	X51	Y51	Z51	X52	Y52	Z52	X53	Y53	Z53	

154	1.53	941.6099853515625	1038.910278320312	-115.8242797851562	783.3005981445312	1024.24853515625	-81.90172576904297	853.6113891601562	1091.208984375	-89.49814605712891	808.5407104492188	1285.109497070312	-306.7920837402344	849.4383544921875	1235.455444335938	-64.44881439208984	811.319580078125	1502.281616210938	-103.8881759643555	800.3031005859375	1409.953125	-262.1975708007812	909.2805786132812	1372.611328125	-64.597412109375	722.2130126953125	1451.730712890625	-71.59125518798828	634.4921264648438	1451.961791992188	-160.2050628662109	570.2353515625	1323.898559570312	-119.4691772460938	550.9203491210938	1107.651733398438	-116.5914154052734	650.7307739257812	1096.171508789062	-77.34781646728516	597.8269653320312	880.2520141601562	-254.5641174316406	573.4093627929688	848.1704711914062	-175.4048614501953	546.109130859375	995.126953125	-144.1591033935547	617.9188232421875	706.7924194335938	-320.590576171875	571.0580444335938	766.4219360351562	-225.5113372802734	583.9152221679688	791.7039184570312	-290.8504028320312	971.9183349609375	1500.748168945312	-206.1948394775391	1049.863037109375	1439.7705078125	-200.5758972167969	1113.2978515625	1183.8564453125	-150.9427795410156	1022.14111328125	1141.61474609375	-140.5788726806641	1117.96484375	904.8787231445312	-239.1427917480469	1189.135498046875	914.1650390625	-181.8152465820312	1139.783325195312	1111.580444335938	-157.5121612548828	1138.323852539062	712.2984008789062	-249.4372100830078	1147.7568359375	793.0795288085938	-250.0693206787109	1203.249633789062	809.391357421875	-201.4342956542969	755.6070556640625	1675.731323242188	-129.7331085205078	717.72705078125	1682.079345703125	-345.2019653320312	647.8131103515625	1667.291625976562	-277.2397766113281	853.2902221679688	1695.299194335938	-235.3097076416016	660.8373413085938	918.5106811523438	-163.1511077880859	1022.847839355469	931.2049560546875	-245.9173431396484	934.6255493164062	963.95458984375	-335.0130310058594	704.4476318359375	970.8328247070312	-285.2533874511719	738.5039672851562	502.6795654296875	-344.8847961425781	696.734130859375	620.2601318359375	-270.4277954101562	863.9735717773438	25.8993034362793	-275.0807189941406	791.5658569335938	256.0567321777344	-283.2311401367188	853.6362915039062	28.37057685852051	-503.5301208496094	885.1839599609375	36.84794616699219	-452.4119262695312	803.4251708984375	30.70333671569824	-384.7480163574219	935.8078002929688	36.0351676940918	-228.491943359375	1038.658081054688	492.3209228515625	-305.5018310546875	1033.243896484375	769.7236938476562	-282.5503540039062	1094.8251953125	243.8409881591797	129.8165588378906	1057.672607421875	398.0683288574219	-215.0619659423828	1057.451049804688	44.51379776000977	10.86565589904785	1026.485961914062	99.78864288330078	42.3516845703125	1121.404663085938	114.9838180541992	57.22797012329102	1047.044555664062	284.9732055664062	159.9973297119141	
155	1.54	938.56640625	1039.695434570312	-125.6595458984375	780.9601440429688	1025.097290039062	-89.22480010986328	851.08544921875	1092.10595703125	-97.87188720703125	804.001708984375	1286.23193359375	-314.682373046875	847.10400390625	1236.3369140625	-72.64896392822266	808.7608642578125	1503.2001953125	-111.6633911132812	796.3233642578125	1411.025512695312	-269.9114685058594	906.9204711914062	1373.413452148438	-73.27722930908203	719.9578247070312	1452.769287109375	-78.49676513671875	631.6130981445312	1453.110717773438	-166.2295989990234	567.2393798828125	1325.1826171875	-125.1127777099609	546.8368530273438	1109.148315429688	-122.7488250732422	646.9131469726562	1096.792724609375	-84.22888946533203	591.9436645507812	885.049560546875	-266.0605163574219	567.9492797851562	851.0820922851562	-187.6336364746094	541.4000854492188	997.3170166015625	-152.5192260742188	610.439697265625	713.3345947265625	-336.8127746582031	564.7116088867188	770.7021484375	-239.7432098388672	577.1736450195312	797.63720703125	-304.5478210449219	968.5972290039062	1501.6005859375	-215.3575286865234	1046.46826171875	1440.707275390625	-209.9538116455078	1110.2734375	1185.329833984375	-158.8802185058594	1019.240600585938	1142.90625	-148.3305358886719	1116.408447265625	905.5044555664062	-244.1031341552734	1187.524658203125	915.934326171875	-186.8552856445312	1137.020874023438	1113.271240234375	-164.8389739990234	1137.875732421875	713.0015869140625	-252.6758728027344	1146.918823242188	793.7620849609375	-253.6905670166016	1202.349487304688	811.0789184570312	-205.2664642333984	752.8991088867188	1676.766845703125	-136.8628692626953	712.6382446289062	1683.001708984375	-352.0054016113281	643.43017578125	1668.157958984375	-283.3331298828125	849.4283447265625	1696.399658203125	-243.5994567871094	657.5900268554688	918.7691040039062	-168.4933166503906	1017.9912109375	932.4026489257812	-257.3506774902344	928.3009033203125	965.254638671875	-344.7226867675781	699.0201416015625	971.5944213867188	-291.2272338867188	735.9544677734375	501.5402221679688	-346.6536560058594	693.9896850585938	619.7546997070312	-273.1923522949219	863.8785400390625	25.81166648864746	-275.0272521972656	790.4716796875	255.7751770019531	-283.755859375	853.6437377929688	28.33395195007324	-503.5486145019531	885.0996704101562	36.88932418823242	-452.3778076171875	803.2896118164062	30.55636215209961	-384.6714477539062	935.7568969726562	36.06531524658203	-228.4242248535156	1031.141235351562	494.5547790527344	-326.51806640625	1027.734985351562	771.6593017578125	-297.0943908691406	1095.829833984375	246.4005889892578	106.8861770629883	1051.7841796875	400.4115295410156	-237.2169494628906	1059.600708007812	47.36312484741211	-12.87410831451416	1028.240234375	101.9601135253906	19.39948081970215	1123.097534179688	118.7061920166016	32.58050918579102	1047.9482421875	286.4762268066406	138.3672027587891	
156	1.55	935.617919921875	1040.528076171875	-135.4056549072266	778.7025756835938	1025.904296875	-96.40180206298828	848.5759887695312	1093.013061523438	-106.1428909301758	799.3441162109375	1287.378295898438	-322.4559631347656	844.793701171875	1237.234497070312	-80.73568725585938	806.236328125	1504.124877929688	-119.3361282348633	792.2666015625	1412.11279296875	-277.4981994628906	904.5610961914062	1374.225463867188	-81.97148132324219	717.7597045898438	1453.837890625	-85.23387145996094	628.74169921875	1454.300170898438	-172.0486297607422	564.2862548828125	1326.50341796875	-130.5124359130859	542.847412109375	1110.706298828125	-128.5843200683594	643.247802734375	1097.492553710938	-90.87571716308594	586.0892944335938	889.9946899414062	-277.14111328125	562.5381469726562	854.1756591796875	-199.4690704345703	536.7764282226562	999.6040649414062	-160.53759765625	602.9384765625	720.1144409179688	-352.4896240234375	558.4295043945312	775.201171875	-253.5030822753906	570.4473876953125	803.7339477539062	-317.7380065917969	965.2222900390625	1502.501342773438	-224.5499572753906	1043.0166015625	1441.703002929688	-219.3776092529297	1107.19287109375	1186.874145507812	-166.7932739257812	1016.320617675781	1144.314208984375	-156.1105651855469	1114.764526367188	906.3455810546875	-249.4038391113281	1185.751708984375	917.7601318359375	-192.1333312988281	1134.21044921875	1115.01220703125	-172.1757202148438	1137.327026367188	713.9559936523438	-256.4823608398438	1145.980224609375	794.6959228515625	-257.879638671875	1201.25537109375	812.8499145507812	-209.5210113525391	750.1640014648438	1677.831298828125	-143.9287414550781	707.5352172851562	1683.881713867188	-358.7083740234375	639.0277709960938	1668.984619140625	-289.3289794921875	845.5321044921875	1697.487426757812	-251.7918548583984	654.3780517578125	918.8885498046875	-173.5932769775391	1012.993591308594	933.7022705078125	-268.82666015625	921.7037963867188	966.5894165039062	-354.3157958984375	693.467529296875	972.2919311523438	-296.8751525878906	733.5466918945312	500.4401245117188	-348.1454467773438	691.4686279296875	619.2320556640625	-275.6805725097656	863.7924194335938	25.74496078491211	-274.9765014648438	789.488525390625	255.5443267822266	-284.1687927246094	853.6530151367188	28.29585838317871	-503.5612487792969	885.0272827148438	36.9264030456543	-452.3441162109375	803.1710205078125	30.43430328369141	-384.6048889160156	935.699951171875	36.12367248535156	-228.3569488525391	1022.944213867188	497.0554809570312	-347.0999755859375	1021.94091796875	773.6863403320312	-311.5232238769531	1096.69970703125	247.5427093505859	83.26927185058594	1045.308837890625	402.7752075195312	-259.1977844238281	1061.388671875	49.64016723632812	-38.32349395751953	1029.7216796875	103.2713928222656	-4.901904582977295	1124.49072265625	121.4545288085938	6.593025207519531	1048.832763671875	286.4441223144531	116.2953872680664	
157	1.56	932.790283203125	1041.388305664062	-145.0619506835938	776.5436401367188	1026.671020507812	-103.4501113891602	846.0950927734375	1093.925415039062	-114.3308639526367	794.5420532226562	1288.536376953125	-330.1139221191406	842.4954223632812	1238.143310546875	-88.71537017822266	803.7385864257812	1505.051147460938	-126.9138336181641	788.115234375	1413.20556640625	-284.9582824707031	902.20947265625	1375.042358398438	-90.67918395996094	715.6190185546875	1454.926635742188	-91.80436706542969	625.873046875	1455.52587890625	-177.6585388183594	561.3699340820312	1327.851928710938	-135.6672515869141	538.966064453125	1112.305541992188	-134.1109619140625	639.7286376953125	1098.263427734375	-97.30006408691406	580.26806640625	895.0538330078125	-287.7919006347656	557.1852416992188	857.4227294921875	-210.8866424560547	532.2467041015625	1001.962097167969	-168.2157897949219	595.4664916992188	727.0859985351562	-367.5853576660156	552.2268676757812	779.87841796875	-266.7754516601562	563.7565307617188	809.954345703125	-330.4001770019531	961.7723388671875	1503.421630859375	-233.7820281982422	1039.498901367188	1442.747802734375	-228.8828430175781	1104.06982421875	1188.47607421875	-174.7225952148438	1013.397277832031	1145.832397460938	-163.9356842041016	1113.02978515625	907.3772583007812	-255.0674438476562	1183.81396484375	919.6138305664062	-197.6769104003906	1131.3583984375	1116.785400390625	-179.5593872070312	1136.667236328125	715.1522216796875	-260.8630676269531	1144.9306640625	795.8716430664062	-262.6430969238281	1199.945190429688	814.6620483398438	-214.2102813720703	747.3974609375	1678.920776367188	-150.9335174560547	702.422607421875	1684.717041015625	-365.31103515625	634.600830078125	1669.766723632812	-295.2305297851562	841.59521484375	1698.5498046875	-259.8798828125	651.22314453125	918.9051513671875	-178.4455718994141	1007.864929199219	935.0891723632812	-280.3671264648438	914.8541870117188	967.94921875	-363.7897644042969	687.8076171875	972.9264526367188	-302.2244567871094	731.291259765625	499.3847351074219	-349.3926086425781	689.1616821289062	618.7161254882812	-277.9408264160156	863.7152709960938	25.70186996459961	-274.9297180175781	788.6232299804688	255.3599853515625	-284.4945373535156	853.66455078125	28.25982856750488	-503.5679626464844	884.9655151367188	36.96039962768555	-452.3105773925781	803.0676879882812	30.33465957641602	-384.5472106933594	935.6319580078125	36.21812057495117	-228.2921905517578	1014.054626464844	499.7650451660156	-367.195068359375	1015.845764160156	775.76806640625	-325.8402709960938	1097.428466796875	247.2651824951172	58.99290084838867	1038.234741210938	405.1065979003906	-280.9523010253906	1062.626708984375	51.28983306884766	-65.37480163574219	1030.797973632812	103.7245407104492	-30.45186614990234	1125.462890625	123.2345657348633	-20.65801811218262	1049.73876953125	284.8996887207031	93.79465484619141	
